# xmcd
#
# Track frame offsets:
#	182
#	11145
#	32945
#	44270
#	53647
#	64445
#	75620
#	88220
#	98167
#	111282
#	127107
#	139202
#
# Disc length: 2038
#
# Revision: 1
# Processed by: cddbd v1.5.1PL0 Copyright (c) Steve Scherf et al.
# Submitted via: ExactAudioCopy v0.90b4
# Normalized: r0:DSETVAR1
#
DISCID=ac07f40c
DTITLE=Various Artist - The Fire Fury Records Story Sampler
DYEAR=1993
DGENRE=Blues
TTITLE0=Wilbert Harrison - Kansas City
TTITLE1=Bobby Marchan - There's Something on Your Mind, Pts. 1 and 2
TTITLE2=Sam Myers - You Don't Have to Go
TTITLE3=Gladys Knight and the Pips - Every Beat of My Heart
TTITLE4=Lee Dorsey - Ya Ya
TTITLE5=Buster Brown - Sugar Babe
TTITLE6=King Curtis and The Noble Knights - Soul Twist
TTITLE7=Titus Turner - People Sure Act Funny (When They Get Alittle Money)
TTITLE8=Don Gardner feat. Dee Dee Ford - I Need Your Loving
TTITLE9=Dr. Horse - Jack, That Cat Was Clean
TTITLE10=Marshall "Rock" Jones - You Can Do It If You Want To
TTITLE11=Lightnin' Hopkins - Mojo Hand
EXTD=
EXTT0=
EXTT1=
EXTT2=
EXTT3=
EXTT4=
EXTT5=
EXTT6=
EXTT7=
EXTT8=
EXTT9=
EXTT10=
EXTT11=
PLAYORDER=
